<svg xmlns="http://www.w3.org/2000/svg" fill="none" viewBox="0 0 128 128"><g id="fog-day__fog-day"><g id="fog-day__Mask group"><mask id="fog-day__mask0_2038_13984" width="128" height="75" x="0" y="0" maskUnits="userSpaceOnUse" style="mask-type:alpha"><rect id="fog-day__Mask" width="128" height="75" fill="#000"/></mask><g mask="url(#fog-day__mask0_2038_13984)"><g id="fog-day__Sun"><circle id="fog-day__Core" cx="64" cy="72" r="11.5" stroke="currentColor" stroke-width="3"/><path id="fog-day__Rays" fill="currentColor" fill-rule="evenodd" d="M64 40c.736 0 1.333.597 1.333 1.333v8a1.333 1.333 0 1 1-2.666 0v-8c0-.736.597-1.333 1.333-1.333m-22.627 9.373c.52-.521 1.364-.521 1.885 0l5.657 5.656a1.333 1.333 0 1 1-1.886 1.886l-5.656-5.657a1.333 1.333 0 0 1 0-1.885m45.254 0c.521.52.521 1.364 0 1.885l-5.656 5.657a1.333 1.333 0 0 1-1.886-1.886l5.657-5.656c.52-.521 1.365-.521 1.885 0M32 72c0-.736.597-1.333 1.333-1.333h8a1.333 1.333 0 1 1 0 2.666h-8A1.333 1.333 0 0 1 32 72m53.333 0c0-.736.597-1.333 1.334-1.333h8a1.333 1.333 0 0 1 0 2.666h-8A1.333 1.333 0 0 1 85.333 72M48.915 87.085c.52.52.52 1.365 0 1.886l-5.657 5.656a1.333 1.333 0 1 1-1.885-1.885l5.656-5.657c.521-.52 1.365-.52 1.886 0m30.17 0c.52-.52 1.365-.52 1.886 0l5.656 5.657a1.333 1.333 0 1 1-1.885 1.885l-5.657-5.656a1.333 1.333 0 0 1 0-1.886M64 93.333c.736 0 1.333.597 1.333 1.334v8a1.333 1.333 0 0 1-2.666 0v-8c0-.737.597-1.334 1.333-1.334" clip-rule="evenodd"><animateTransform attributeName="transform" begin="0s" dur="6s" repeatCount="indefinite" type="rotate" values="0 64.0 72.0;360 64.0 72.0"/></path></g></g></g><g id="fog-day__Precipitation"><path id="fog-day__Line 2" stroke="currentColor" stroke-linecap="round" stroke-miterlimit="10" stroke-width="3" d="M40 81h48"><animateTransform attributeName="transform" begin="0s" calcMode="spline" dur="3s" keySplines=".42 0 .58 1; .42 0 .58 1" repeatCount="indefinite" type="translate" values="0 0;3 0;0 0"/></path><path id="fog-day__Line 1" stroke="currentColor" stroke-linecap="round" stroke-miterlimit="10" stroke-width="3" d="M40 89h48"><animateTransform attributeName="transform" begin="-2.8s" calcMode="spline" dur="3s" keySplines=".42 0 .58 1; .42 0 .58 1" repeatCount="indefinite" type="translate" values="0 0;3 0;0 0"/></path></g></g></svg>