<svg xmlns="http://www.w3.org/2000/svg" fill="none" viewBox="0 0 128 128"><g id="mostly-clear-day__mostly-clear-day" clip-path="url(#mostly-clear-day__clip0_2038_14028)"><g id="mostly-clear-day__Sky"><g id="mostly-clear-day__Mask group"><mask id="mostly-clear-day__mask0_2038_14028" width="128" height="128" x="0" y="0" maskUnits="userSpaceOnUse" style="mask-type:alpha"><g id="mostly-clear-day__Cloud Mask"><path id="mostly-clear-day__Subtract" fill="#000" fill-rule="evenodd" d="M128 0H0v128h128zM45.766 92.974c-7.245.001-13.071-5.775-13.708-12.694-.53-5.778 2.63-11.44 7.82-13.954.369-3.815 2.353-7.427 5.607-9.7 3.166-2.212 7.143-2.852 10.78-1.879 4.907-5.343 12.857-7.351 19.82-4.357 6.702 2.883 10.74 9.6 10.776 16.563 5.349 1.754 9.138 6.927 9.138 12.688 0 7.058-5.713 13.333-13.117 13.333h-.003c-8.245-.008-16.489-.005-24.734-.003h-.005q-6.185.003-12.373.003z" clip-rule="evenodd"/><animateTransform attributeName="transform" begin="0s" calcMode="spline" dur="3s" keySplines=".42 0 .58 1; .42 0 .58 1" repeatCount="indefinite" type="translate" values="0 0;0 -3;0 0"/></g></mask><g mask="url(#mostly-clear-day__mask0_2038_14028)"><g id="mostly-clear-day__Sun"><circle id="mostly-clear-day__Core" cx="50" cy="62" r="11.5" stroke="currentColor" stroke-width="3"/><path id="mostly-clear-day__Rays" fill="currentColor" fill-rule="evenodd" d="M50 30c.736 0 1.333.597 1.333 1.333v8a1.333 1.333 0 1 1-2.666 0v-8c0-.736.597-1.333 1.333-1.333m-22.627 9.373c.52-.521 1.364-.521 1.885 0l5.657 5.656a1.333 1.333 0 1 1-1.886 1.886l-5.656-5.657a1.333 1.333 0 0 1 0-1.885m45.254 0c.521.52.521 1.364 0 1.885l-5.656 5.657a1.333 1.333 0 0 1-1.886-1.886l5.657-5.656c.52-.521 1.365-.521 1.885 0M18 62c0-.736.597-1.333 1.333-1.333h8a1.333 1.333 0 1 1 0 2.666h-8A1.333 1.333 0 0 1 18 62m53.333 0c0-.736.597-1.333 1.334-1.333h8a1.333 1.333 0 0 1 0 2.666h-8A1.333 1.333 0 0 1 71.333 62M34.915 77.085c.52.52.52 1.365 0 1.886l-5.657 5.656a1.333 1.333 0 1 1-1.885-1.885l5.656-5.657c.521-.52 1.365-.52 1.886 0m30.17 0c.52-.52 1.365-.52 1.886 0l5.656 5.657a1.333 1.333 0 1 1-1.885 1.885l-5.657-5.656a1.333 1.333 0 0 1 0-1.886M50 83.333c.736 0 1.333.597 1.333 1.334v8a1.333 1.333 0 0 1-2.666 0v-8c0-.737.597-1.334 1.333-1.334" clip-rule="evenodd"><animateTransform attributeName="transform" begin="0s" dur="6s" repeatCount="indefinite" type="rotate" values="0 50.0 62.0;360 50.0 62.0"/></path></g></g></g><g id="mostly-clear-day__Clouds"><g id="mostly-clear-day__Cloud"><path id="mostly-clear-day__Cloud_2" fill="currentColor" fill-rule="evenodd" d="M45.767 89c-5.058.001-9.266-4.081-9.724-9.067-.459-4.993 2.932-9.801 7.902-10.767-.59-3.521.896-7.204 3.832-9.256 2.898-2.025 6.801-2.14 9.809-.279 3.447-5.736 10.74-8.225 16.92-5.565 5.268 2.267 8.465 7.687 8.355 13.264a14 14 0 0 1-.389 3.01 8.8 8.8 0 0 1 2.99.384C89.24 71.894 92 75.533 92 79.66c0 4.995-4.06 9.34-9.116 9.34-8.248-.007-16.498-.005-24.746-.002zm34.389-16.75a3 3 0 0 1-.6-2.617c1.255-5.172-1.42-10.737-6.235-12.81-4.757-2.046-10.465-.136-13.164 4.355a3 3 0 0 1-4.148 1.007c-1.987-1.23-4.596-1.155-6.514.186-1.958 1.369-2.995 3.886-2.591 6.3a3 3 0 0 1-2.387 3.442c-3.374.656-5.812 4.001-5.487 7.545.325 3.532 3.319 6.34 6.737 6.34l12.368-.003c8.25-.002 16.502-.005 24.751.003C86.18 85.996 89 83.102 89 79.66c0-3.549-2.985-6.473-6.394-6.32a3 3 0 0 1-2.45-1.09" clip-rule="evenodd"/></g><animateTransform attributeName="transform" begin="0s" calcMode="spline" dur="3s" keySplines=".42 0 .58 1; .42 0 .58 1" repeatCount="indefinite" type="translate" values="0 0;0 -3;0 0"/></g></g></g><defs><clipPath id="mostly-clear-day__clip0_2038_14028"><rect width="128" height="128" fill="#fff"/></clipPath></defs></svg>