<svg xmlns="http://www.w3.org/2000/svg" fill="none" viewBox="0 0 128 128"><g id="mostly-clear-night__mostly-clear-night" clip-path="url(#mostly-clear-night__clip0_2038_14030)"><g id="mostly-clear-night__Sky"><g id="mostly-clear-night__Mask group"><mask id="mostly-clear-night__mask0_2038_14030" width="128" height="128" x="0" y="0" maskUnits="userSpaceOnUse" style="mask-type:alpha"><g id="mostly-clear-night__Cloud Mask"><path id="mostly-clear-night__Subtract" fill="#000" fill-rule="evenodd" d="M128 0H0v128h128zM45.766 92.974c-7.245.001-13.071-5.775-13.708-12.694-.53-5.778 2.63-11.44 7.82-13.954.369-3.815 2.353-7.427 5.607-9.7 3.166-2.212 7.143-2.852 10.78-1.879 4.907-5.343 12.857-7.351 19.82-4.357 6.702 2.883 10.74 9.6 10.776 16.563 5.349 1.754 9.138 6.927 9.138 12.688 0 7.058-5.713 13.333-13.117 13.333h-.003c-8.245-.008-16.489-.005-24.734-.003h-.005q-6.185.003-12.373.003z" clip-rule="evenodd"/><animateTransform attributeName="transform" begin="0s" calcMode="spline" dur="3s" keySplines=".42 0 .58 1; .42 0 .58 1" repeatCount="indefinite" type="translate" values="0 0;0 -3;0 0"/></g></mask><g mask="url(#mostly-clear-night__mask0_2038_14030)"><g id="mostly-clear-night__Moon"><path id="mostly-clear-night__Moon_2" stroke="currentColor" stroke-width="3" d="M50.997 43.821c-2.266 14.257 9.75 27.379 23.914 27.264C71.965 78.908 64.344 84.5 55.368 84.5 43.824 84.5 34.5 75.27 34.5 63.93c0-9.866 7.059-18.126 16.497-20.109Z"/><animateTransform attributeName="transform" begin="0s" calcMode="spline" dur="3s" keySplines=".42 0 .58 1; .42 0 .58 1" repeatCount="indefinite" type="rotate" values="-6 54.7 64.2;6 54.7 64.2;-6 54.7 64.2"/></g></g></g><g id="mostly-clear-night__Clouds"><g id="mostly-clear-night__Cloud"><path id="mostly-clear-night__Cloud_2" fill="currentColor" fill-rule="evenodd" d="M45.767 89c-5.058.001-9.266-4.081-9.724-9.067-.459-4.993 2.932-9.801 7.902-10.767-.59-3.521.896-7.204 3.832-9.256 2.898-2.025 6.801-2.14 9.809-.279 3.447-5.736 10.74-8.225 16.92-5.565 5.268 2.267 8.465 7.687 8.355 13.264a14 14 0 0 1-.389 3.01 8.8 8.8 0 0 1 2.99.384C89.24 71.894 92 75.533 92 79.66c0 4.995-4.06 9.34-9.116 9.34-8.248-.007-16.498-.005-24.746-.002zm34.389-16.75a3 3 0 0 1-.6-2.617c1.255-5.172-1.42-10.737-6.235-12.81-4.757-2.046-10.465-.136-13.164 4.355a3 3 0 0 1-4.148 1.007c-1.987-1.23-4.596-1.155-6.514.186-1.958 1.369-2.995 3.886-2.591 6.3a3 3 0 0 1-2.387 3.442c-3.374.656-5.812 4.001-5.487 7.545.325 3.532 3.319 6.34 6.737 6.34l12.368-.003c8.25-.002 16.502-.005 24.751.003C86.18 85.996 89 83.102 89 79.66c0-3.549-2.985-6.473-6.394-6.32a3 3 0 0 1-2.45-1.09" clip-rule="evenodd"/></g><animateTransform attributeName="transform" begin="0s" calcMode="spline" dur="3s" keySplines=".42 0 .58 1; .42 0 .58 1" repeatCount="indefinite" type="translate" values="0 0;0 -3;0 0"/></g></g></g><defs><clipPath id="mostly-clear-night__clip0_2038_14030"><rect width="128" height="128" fill="#fff"/></clipPath></defs></svg>