<svg xmlns="http://www.w3.org/2000/svg" fill="none" viewBox="0 0 128 128"><g id="overcast-night-rain__overcast-night-rain" clip-path="url(#overcast-night-rain__clip0_2038_14047)"><g id="overcast-night-rain__Sky"><g id="overcast-night-rain__Mask group"><mask id="overcast-night-rain__mask0_2038_14047" width="128" height="128" x="0" y="0" maskUnits="userSpaceOnUse" style="mask-type:alpha"><g id="overcast-night-rain__Cloud Mask"><path id="overcast-night-rain__Subtract" fill="#000" fill-rule="evenodd" d="M128 0H0v128h128zM37.952 93h53.023c9.252 0 17.023-7.647 17.023-16.972 0-8.006-5.693-14.678-13.073-16.477.437-9.65-5.25-18.942-14.374-22.759-9.444-3.95-20.485-1.18-27.02 6.446-4.96-1.642-10.55-.942-14.957 2.053-4.428 3.009-7.143 7.99-7.39 13.247-7.12 2.925-11.856 10.313-11.106 18.246.864 9.145 8.75 16.218 17.874 16.216" clip-rule="evenodd"/><animateTransform attributeName="transform" begin="0s" calcMode="spline" dur="3s" keySplines=".42 0 .58 1; .42 0 .58 1" repeatCount="indefinite" type="translate" values="0 0;0 -3;0 0"/></g></mask><g mask="url(#overcast-night-rain__mask0_2038_14047)"><g id="overcast-night-rain__Moon"><path id="overcast-night-rain__Moon_2" fill="currentColor" d="M35.766 34C29.15 34.714 24 40.241 24 46.959 24 54.16 29.918 60 37.218 60 43.37 60 48.527 55.846 50 50.23c-8.783.941-16.523-7.51-14.234-16.23"/><animateTransform attributeName="transform" begin="0s" calcMode="spline" dur="3s" keySplines=".42 0 .58 1; .42 0 .58 1" repeatCount="indefinite" type="rotate" values="-6 37.0 47.0;6 37.0 47.0;-6 37.0 47.0"/></g></g></g><g id="overcast-night-rain__Clouds" clip-path="url(#overcast-night-rain__clip1_2038_14047)"><g id="overcast-night-rain__Mask group_2"><mask id="overcast-night-rain__mask1_2038_14047" width="128" height="128" x="0" y="0" maskUnits="userSpaceOnUse" style="mask-type:alpha"><g id="overcast-night-rain__Cloud Mask_2"><path id="overcast-night-rain__Subtract_2" fill="#000" fill-rule="evenodd" d="M128 0H0v128h128zM37.952 93h53.023c9.252 0 17.023-7.647 17.023-16.972 0-8.006-5.693-14.678-13.073-16.477.437-9.65-5.25-18.942-14.374-22.759-9.444-3.95-20.485-1.18-27.02 6.446-4.96-1.642-10.55-.942-14.957 2.053-4.428 3.009-7.143 7.99-7.39 13.247-7.12 2.925-11.856 10.313-11.106 18.246.864 9.145 8.75 16.218 17.874 16.216" clip-rule="evenodd"/></g></mask><g mask="url(#overcast-night-rain__mask1_2038_14047)"><g id="overcast-night-rain__Secondary Cloud"><path id="overcast-night-rain__Cloud" fill="currentColor" d="M101.194 55.57c1.173-4.51-1.434-9.134-5.69-10.843-4.312-1.73-9.543-.238-12.085 3.708-2.154-1.243-4.923-1.173-7.007.186-2.031 1.324-3.169 3.76-2.737 6.166-3.375.612-5.988 3.688-5.644 7.173.344 3.493 3.508 6.04 6.946 6.04 8.836 0 17.674-.008 26.511 0 3.423 0 6.512-2.713 6.512-6.222 0-3.63-3.279-6.356-6.806-6.208"/><animateTransform attributeName="transform" begin="0s" calcMode="spline" dur="3s" keySplines=".42 0 .58 1; .42 0 .58 1" repeatCount="indefinite" type="translate" values="0 -3;0 0;0 -3"/></g></g><animateTransform attributeName="transform" begin="0s" calcMode="spline" dur="3s" keySplines=".42 0 .58 1; .42 0 .58 1" repeatCount="indefinite" type="translate" values="0 0;0 -3;0 0"/></g><g id="overcast-night-rain__Cloud_2"><path id="overcast-night-rain__Cloud_3" fill="currentColor" fill-rule="evenodd" d="M54.837 48.212c4.99-8.074 15.428-11.388 24.171-7.73 8.734 3.654 13.676 13.4 11.38 22.604C97.684 62.767 104 68.706 104 76.028 104 83.116 98.048 89 90.977 89a2 2 0 0 1 0-4.003c4.887 0 9.023-4.117 9.023-8.969 0-5.002-4.378-9.164-9.437-8.943l-2.676.116a2 2 0 0 1-2.028-2.484l.649-2.6c1.812-7.269-2.117-15.044-9.042-17.942-6.941-2.904-15.277-.248-19.227 6.142l-1.039 1.68a2 2 0 0 1-2.73.663l-1.693-1.018c-2.965-1.783-6.845-1.676-9.706.268-2.85 1.937-4.361 5.482-3.78 8.865l.335 1.94a2 2 0 0 1-1.6 2.307l-1.934.365c-4.95.936-8.52 5.657-8.048 10.644.471 4.99 4.866 8.967 9.908 8.966a2 2 0 0 1 0 4.003c-7.082.001-13.223-5.525-13.89-12.592-.668-7.067 4.329-13.64 11.288-14.954-.85-4.94 1.333-10.04 5.474-12.855 4.151-2.82 9.712-2.974 14.013-.387" clip-rule="evenodd"/><animateTransform attributeName="transform" begin="0s" calcMode="spline" dur="3s" keySplines=".42 0 .58 1; .42 0 .58 1" repeatCount="indefinite" type="translate" values="0 0;0 -3;0 0"/></g></g></g><g id="overcast-night-rain__Precipitation"><g id="overcast-night-rain__Raindrops"><path id="overcast-night-rain__Raindrop 1" stroke="currentColor" stroke-linecap="round" stroke-width="4" d="M52 83v12"><animateTransform attributeName="transform" begin="0s" calcMode="spline" dur="1s" keySplines=".42 0 1 1" repeatCount="indefinite" type="translate" values="0 0;0 20"/><animate attributeName="opacity" begin="0s" dur="1s" keyTimes="0;0.15;0.85;1" repeatCount="indefinite" values="0;1;1;0"/></path><path id="overcast-night-rain__Raindrop 2" stroke="currentColor" stroke-linecap="round" stroke-width="4" d="M64 83v12"><animateTransform attributeName="transform" begin="-0.6s" calcMode="spline" dur="1s" keySplines=".42 0 1 1" repeatCount="indefinite" type="translate" values="0 0;0 20"/><animate attributeName="opacity" begin="-0.6s" dur="1s" keyTimes="0;0.15;0.85;1" repeatCount="indefinite" values="0;1;1;0"/></path><path id="overcast-night-rain__Raindrop 3" stroke="currentColor" stroke-linecap="round" stroke-width="4" d="M76 83v12"><animateTransform attributeName="transform" begin="-0.19999999999999996s" calcMode="spline" dur="1s" keySplines=".42 0 1 1" repeatCount="indefinite" type="translate" values="0 0;0 20"/><animate attributeName="opacity" begin="-0.19999999999999996s" dur="1s" keyTimes="0;0.15;0.85;1" repeatCount="indefinite" values="0;1;1;0"/></path></g></g></g><defs><clipPath id="overcast-night-rain__clip0_2038_14047"><rect width="128" height="128" fill="#fff"/></clipPath><clipPath id="overcast-night-rain__clip1_2038_14047"><rect width="128" height="128" fill="#fff"/></clipPath></defs></svg>