<svg xmlns="http://www.w3.org/2000/svg" fill="none" viewBox="0 0 128 128"><g id="overcast-snow__overcast-snow" clip-path="url(#overcast-snow__clip0_2038_14140)"><g id="overcast-snow__Sky"><g id="overcast-snow__Clouds" clip-path="url(#overcast-snow__clip1_2038_14140)"><g id="overcast-snow__Mask group"><mask id="overcast-snow__mask0_2038_14140" width="128" height="128" x="0" y="0" maskUnits="userSpaceOnUse" style="mask-type:alpha"><g id="overcast-snow__Cloud Mask"><path id="overcast-snow__Subtract" fill="#000" fill-rule="evenodd" d="M128 0H0v128h128zM37.952 93h53.023c9.252 0 17.023-7.647 17.023-16.972 0-8.006-5.693-14.678-13.073-16.477.437-9.65-5.25-18.942-14.374-22.759-9.444-3.95-20.485-1.18-27.02 6.446-4.96-1.642-10.55-.942-14.957 2.053-4.428 3.009-7.143 7.99-7.39 13.247-7.12 2.925-11.856 10.313-11.106 18.246.864 9.145 8.75 16.218 17.874 16.216" clip-rule="evenodd"/></g></mask><g mask="url(#overcast-snow__mask0_2038_14140)"><g id="overcast-snow__Secondary Cloud"><path id="overcast-snow__Cloud" fill="currentColor" d="M101.194 55.57c1.173-4.51-1.434-9.134-5.69-10.843-4.312-1.73-9.543-.238-12.085 3.708-2.154-1.243-4.923-1.173-7.007.186-2.031 1.324-3.169 3.76-2.737 6.166-3.375.612-5.988 3.688-5.644 7.173.344 3.493 3.508 6.04 6.946 6.04 8.836 0 17.674-.008 26.511 0 3.423 0 6.512-2.713 6.512-6.222 0-3.63-3.279-6.356-6.806-6.208"/><animateTransform attributeName="transform" begin="0s" calcMode="spline" dur="3s" keySplines=".42 0 .58 1; .42 0 .58 1" repeatCount="indefinite" type="translate" values="0 -3;0 0;0 -3"/></g></g><animateTransform attributeName="transform" begin="0s" calcMode="spline" dur="3s" keySplines=".42 0 .58 1; .42 0 .58 1" repeatCount="indefinite" type="translate" values="0 0;0 -3;0 0"/></g><g id="overcast-snow__Cloud_2"><path id="overcast-snow__Cloud_3" fill="currentColor" fill-rule="evenodd" d="M54.837 48.212c4.99-8.074 15.428-11.388 24.171-7.73 8.734 3.654 13.676 13.4 11.38 22.604C97.684 62.767 104 68.706 104 76.028 104 83.116 98.048 89 90.977 89a2 2 0 0 1 0-4.003c4.887 0 9.023-4.117 9.023-8.969 0-5.002-4.378-9.164-9.437-8.943l-2.676.116a2 2 0 0 1-2.028-2.484l.649-2.6c1.812-7.269-2.117-15.044-9.042-17.942-6.941-2.904-15.277-.248-19.227 6.142l-1.039 1.68a2 2 0 0 1-2.73.663l-1.693-1.018c-2.965-1.783-6.845-1.676-9.706.268-2.85 1.937-4.361 5.482-3.78 8.865l.335 1.94a2 2 0 0 1-1.6 2.307l-1.934.365c-4.95.936-8.52 5.657-8.048 10.644.471 4.99 4.866 8.967 9.908 8.966a2 2 0 0 1 0 4.003c-7.082.001-13.223-5.525-13.89-12.592-.668-7.067 4.329-13.64 11.288-14.954-.85-4.94 1.333-10.04 5.474-12.855 4.151-2.82 9.712-2.974 14.013-.387" clip-rule="evenodd"/><animateTransform attributeName="transform" begin="0s" calcMode="spline" dur="3s" keySplines=".42 0 .58 1; .42 0 .58 1" repeatCount="indefinite" type="translate" values="0 0;0 -3;0 0"/></g></g></g><g id="overcast-snow__Precipitation"><g id="overcast-snow__Snowflakes"><path id="overcast-snow__Snowflake 1" fill="currentColor" d="m52.578 90.366-1.205-.689a2.9 2.9 0 0 0-.002-1.353l1.207-.69a.83.83 0 0 0 .309-1.141.85.85 0 0 0-1.153-.306l-1.206.69a2.9 2.9 0 0 0-1.184-.677v-1.38A.85.85 0 0 0 48.5 84a.843.843 0 0 0-.844.82v1.38a2.96 2.96 0 0 0-1.185.674l-1.205-.689a.848.848 0 0 0-1.259.616.83.83 0 0 0 .415.832l1.204.689c-.106.445-.105.909.003 1.353l-1.207.69a.83.83 0 0 0-.415.832.83.83 0 0 0 .62.7.85.85 0 0 0 .64-.084l1.205-.69c.334.318.74.55 1.184.675v1.382a.85.85 0 0 0 .844.82.843.843 0 0 0 .844-.82v-1.383c.441-.129.847-.36 1.184-.673l1.206.69a.847.847 0 0 0 1.259-.616.83.83 0 0 0-.415-.832m-4.712-.28a1.24 1.24 0 0 1-.622-1.25 1.25 1.25 0 0 1 .93-1.048 1.27 1.27 0 0 1 1.329.445 1.25 1.25 0 0 1 .093 1.393 1.28 1.28 0 0 1-1.73.46"><animateTransform attributeName="transform" begin="-0.8s" calcMode="spline" dur="1s" keySplines=".42 0 1 1" repeatCount="indefinite" type="translate" values="0 0;0 20"/><animate attributeName="opacity" begin="-0.8s" dur="1s" keyTimes="0;0.15;0.85;1" repeatCount="indefinite" values="0;1;1;0"/></path><path id="overcast-snow__Snowflake 2" fill="currentColor" d="m67.578 90.366-1.204-.689a2.9 2.9 0 0 0-.003-1.353l1.207-.69a.83.83 0 0 0 .309-1.141.85.85 0 0 0-1.153-.306l-1.206.69a2.9 2.9 0 0 0-1.184-.677v-1.38A.85.85 0 0 0 63.5 84a.843.843 0 0 0-.844.82v1.38a2.96 2.96 0 0 0-1.185.674l-1.205-.689a.848.848 0 0 0-1.259.616.83.83 0 0 0 .415.832l1.204.689c-.106.445-.105.909.003 1.353l-1.207.69a.83.83 0 0 0-.415.832.83.83 0 0 0 .62.7.85.85 0 0 0 .64-.084l1.205-.69c.334.318.74.55 1.184.675v1.382a.85.85 0 0 0 .844.82.843.843 0 0 0 .844-.82v-1.383c.441-.129.847-.36 1.184-.673l1.206.69a.847.847 0 0 0 1.259-.616.83.83 0 0 0-.415-.832m-4.712-.28a1.24 1.24 0 0 1-.622-1.25 1.25 1.25 0 0 1 .93-1.048 1.27 1.27 0 0 1 1.329.445 1.25 1.25 0 0 1 .093 1.393 1.28 1.28 0 0 1-1.73.46"><animateTransform attributeName="transform" begin="-0.30000000000000004s" calcMode="spline" dur="1s" keySplines=".42 0 1 1" repeatCount="indefinite" type="translate" values="0 0;0 20"/><animate attributeName="opacity" begin="-0.30000000000000004s" dur="1s" keyTimes="0;0.15;0.85;1" repeatCount="indefinite" values="0;1;1;0"/></path><path id="overcast-snow__Snowflake 3" fill="currentColor" d="m82.578 90.366-1.204-.689a2.9 2.9 0 0 0-.003-1.353l1.207-.69a.83.83 0 0 0 .309-1.141.85.85 0 0 0-1.153-.306l-1.206.69a2.9 2.9 0 0 0-1.184-.677v-1.38A.85.85 0 0 0 78.5 84a.843.843 0 0 0-.844.82v1.38a2.96 2.96 0 0 0-1.185.674l-1.205-.689a.848.848 0 0 0-1.259.616.83.83 0 0 0 .415.832l1.204.689c-.106.445-.105.909.003 1.353l-1.207.69a.83.83 0 0 0-.415.832.83.83 0 0 0 .62.7.85.85 0 0 0 .64-.084l1.205-.69c.334.318.74.55 1.184.675v1.382a.85.85 0 0 0 .844.82.843.843 0 0 0 .844-.82v-1.383c.441-.129.847-.36 1.184-.673l1.206.69a.847.847 0 0 0 1.259-.616.83.83 0 0 0-.415-.832m-4.712-.28a1.24 1.24 0 0 1-.622-1.25 1.25 1.25 0 0 1 .93-1.048 1.27 1.27 0 0 1 1.329.445 1.25 1.25 0 0 1 .093 1.393 1.28 1.28 0 0 1-1.73.46"><animateTransform attributeName="transform" begin="-0.8s" calcMode="spline" dur="1s" keySplines=".42 0 1 1" repeatCount="indefinite" type="translate" values="0 0;0 20"/><animate attributeName="opacity" begin="-0.8s" dur="1s" keyTimes="0;0.15;0.85;1" repeatCount="indefinite" values="0;1;1;0"/></path></g></g></g><defs><clipPath id="overcast-snow__clip0_2038_14140"><rect width="128" height="128" fill="#fff"/></clipPath><clipPath id="overcast-snow__clip1_2038_14140"><rect width="128" height="128" fill="#fff"/></clipPath></defs></svg>