<svg xmlns="http://www.w3.org/2000/svg" fill="none" viewBox="0 0 128 128"><g id="partly-cloudy-day-drizzle__partly-cloudy-day-drizzle" clip-path="url(#partly-cloudy-day-drizzle__clip0_2038_14068)"><g id="partly-cloudy-day-drizzle__Sky"><g id="partly-cloudy-day-drizzle__Mask group"><mask id="partly-cloudy-day-drizzle__mask0_2038_14068" width="128" height="128" x="0" y="0" maskUnits="userSpaceOnUse" style="mask-type:alpha"><g id="partly-cloudy-day-drizzle__Cloud Mask"><path id="partly-cloudy-day-drizzle__Subtract" fill="#000" fill-rule="evenodd" d="M128 0H0v128h128zM37.952 93h53.023c9.252 0 17.023-7.647 17.023-16.972 0-8.006-5.693-14.678-13.073-16.477.437-9.65-5.25-18.942-14.374-22.759-9.444-3.95-20.485-1.18-27.02 6.446-4.96-1.642-10.55-.942-14.957 2.053-4.428 3.009-7.143 7.99-7.39 13.247-7.12 2.925-11.856 10.313-11.106 18.246.864 9.145 8.75 16.218 17.874 16.216" clip-rule="evenodd"/><animateTransform attributeName="transform" begin="0s" calcMode="spline" dur="3s" keySplines=".42 0 .58 1; .42 0 .58 1" repeatCount="indefinite" type="translate" values="0 0;0 -3;0 0"/></g></mask><g mask="url(#partly-cloudy-day-drizzle__mask0_2038_14068)"><g id="partly-cloudy-day-drizzle__Sun"><circle id="partly-cloudy-day-drizzle__Core" cx="39" cy="51" r="9" fill="currentColor"/><g id="partly-cloudy-day-drizzle__Rays"><path fill="currentColor" d="M37.688 31.313a1.312 1.312 0 1 1 2.624 0v6.125a1.312 1.312 0 1 1-2.624 0zM51.993 36.15a1.312 1.312 0 1 1 1.856 1.857l-4.33 4.33a1.312 1.312 0 1 1-1.857-1.855zM58.688 49.688a1.312 1.312 0 1 1 0 2.624h-6.126a1.312 1.312 0 1 1 0-2.624zM53.85 63.993a1.312 1.312 0 1 1-1.857 1.856l-4.33-4.33a1.312 1.312 0 1 1 1.855-1.857zM37.688 64.563a1.312 1.312 0 1 1 2.624 0v6.124a1.312 1.312 0 1 1-2.624 0zM28.482 59.662a1.312 1.312 0 1 1 1.856 1.856l-4.331 4.331a1.312 1.312 0 1 1-1.856-1.856zM25.438 49.688a1.312 1.312 0 1 1 0 2.624h-6.125a1.312 1.312 0 1 1 0-2.624zM30.338 40.482a1.312 1.312 0 1 1-1.856 1.856l-4.331-4.331a1.312 1.312 0 1 1 1.856-1.856z"/><animateTransform attributeName="transform" begin="0s" dur="6s" repeatCount="indefinite" type="rotate" values="0 39.0 51.0;360 39.0 51.0"/></g></g></g></g><g id="partly-cloudy-day-drizzle__Clouds"><g id="partly-cloudy-day-drizzle__Cloud"><path id="partly-cloudy-day-drizzle__Cloud_2" fill="currentColor" fill-rule="evenodd" d="M54.837 48.212c4.99-8.074 15.428-11.388 24.171-7.73 8.734 3.654 13.676 13.4 11.38 22.604C97.684 62.767 104 68.706 104 76.028 104 83.116 98.048 89 90.977 89a2 2 0 0 1 0-4.003c4.887 0 9.023-4.117 9.023-8.969 0-5.002-4.378-9.164-9.437-8.943l-2.676.116a2 2 0 0 1-2.028-2.484l.649-2.6c1.812-7.269-2.117-15.044-9.042-17.942-6.941-2.904-15.277-.248-19.227 6.142l-1.039 1.68a2 2 0 0 1-2.73.663l-1.693-1.018c-2.965-1.783-6.845-1.676-9.706.268-2.85 1.937-4.361 5.482-3.78 8.865l.335 1.94a2 2 0 0 1-1.6 2.307l-1.934.365c-4.95.936-8.52 5.657-8.048 10.644.471 4.99 4.866 8.967 9.908 8.966a2 2 0 0 1 0 4.003c-7.082.001-13.223-5.525-13.89-12.592-.668-7.067 4.329-13.64 11.288-14.954-.85-4.94 1.333-10.04 5.474-12.855 4.151-2.82 9.712-2.974 14.013-.387" clip-rule="evenodd"/></g><animateTransform attributeName="transform" begin="0s" calcMode="spline" dur="3s" keySplines=".42 0 .58 1; .42 0 .58 1" repeatCount="indefinite" type="translate" values="0 0;0 -3;0 0"/></g></g><g id="partly-cloudy-day-drizzle__Precipitation"><g id="partly-cloudy-day-drizzle__Raindrops"><path id="partly-cloudy-day-drizzle__Raindrop 1" stroke="currentColor" stroke-linecap="round" stroke-width="4" d="M52 87v3"><animateTransform attributeName="transform" begin="0s" calcMode="spline" dur="1s" keySplines=".42 0 1 1" repeatCount="indefinite" type="translate" values="0 0;0 20"/><animate attributeName="opacity" begin="0s" dur="1s" keyTimes="0;0.15;0.85;1" repeatCount="indefinite" values="0;1;1;0"/></path><path id="partly-cloudy-day-drizzle__Raindrop 2" stroke="currentColor" stroke-linecap="round" stroke-width="4" d="M64 87v3"><animateTransform attributeName="transform" begin="-0.6s" calcMode="spline" dur="1s" keySplines=".42 0 1 1" repeatCount="indefinite" type="translate" values="0 0;0 20"/><animate attributeName="opacity" begin="-0.6s" dur="1s" keyTimes="0;0.15;0.85;1" repeatCount="indefinite" values="0;1;1;0"/></path><path id="partly-cloudy-day-drizzle__Raindrop 3" stroke="currentColor" stroke-linecap="round" stroke-width="4" d="M76 87v3"><animateTransform attributeName="transform" begin="-0.19999999999999996s" calcMode="spline" dur="1s" keySplines=".42 0 1 1" repeatCount="indefinite" type="translate" values="0 0;0 20"/><animate attributeName="opacity" begin="-0.19999999999999996s" dur="1s" keyTimes="0;0.15;0.85;1" repeatCount="indefinite" values="0;1;1;0"/></path></g></g></g><defs><clipPath id="partly-cloudy-day-drizzle__clip0_2038_14068"><rect width="128" height="128" fill="#fff"/></clipPath></defs></svg>